<mxfile host="app.diagrams.net" agent="Mozilla/5.0 (Windows NT 10.0; Win64; x64) AppleWebKit/537.36 (KHTML, like Gecko) Chrome/131.0.0.0 Safari/537.36 Edg/131.0.0.0" version="26.0.5">
  <diagram name="Page-1" id="BrtZF3clYyrr8Smerzff">
    <mxGraphModel dx="2339" dy="814" grid="1" gridSize="10" guides="1" tooltips="1" connect="1" arrows="1" fold="1" page="1" pageScale="1" pageWidth="850" pageHeight="1100" math="0" shadow="0">
      <root>
        <mxCell id="0" />
        <mxCell id="1" parent="0" />
        <mxCell id="_xMtolpyy3HR6Oa9e1ho-1" value="Windows 10 client wazuh agent" style="fontColor=#0066CC;verticalAlign=top;verticalLabelPosition=bottom;labelPosition=center;align=center;html=1;outlineConnect=0;fillColor=#CCCCCC;strokeColor=#6881B3;gradientColor=none;gradientDirection=north;strokeWidth=2;shape=mxgraph.networks.pc;" vertex="1" parent="1">
          <mxGeometry x="375" y="610" width="100" height="70" as="geometry" />
        </mxCell>
        <mxCell id="_xMtolpyy3HR6Oa9e1ho-2" value="SOC analyst" style="fontColor=#0066CC;verticalAlign=top;verticalLabelPosition=bottom;labelPosition=center;align=center;html=1;outlineConnect=0;fillColor=#CCCCCC;strokeColor=#6881B3;gradientColor=none;gradientDirection=north;strokeWidth=2;shape=mxgraph.networks.pc;" vertex="1" parent="1">
          <mxGeometry x="720" y="420" width="100" height="70" as="geometry" />
        </mxCell>
        <mxCell id="_xMtolpyy3HR6Oa9e1ho-12" value="" style="edgeStyle=orthogonalEdgeStyle;rounded=0;orthogonalLoop=1;jettySize=auto;html=1;" edge="1" parent="1" source="_xMtolpyy3HR6Oa9e1ho-3" target="_xMtolpyy3HR6Oa9e1ho-4">
          <mxGeometry relative="1" as="geometry" />
        </mxCell>
        <mxCell id="_xMtolpyy3HR6Oa9e1ho-4" value="INTERNET" style="image;aspect=fixed;perimeter=ellipsePerimeter;html=1;align=center;shadow=0;dashed=0;spacingTop=3;image=img/lib/active_directory/internet_cloud.svg;" vertex="1" parent="1">
          <mxGeometry x="400" y="260" width="81.75" height="51.5" as="geometry" />
        </mxCell>
        <mxCell id="_xMtolpyy3HR6Oa9e1ho-5" value="TheHive" style="image;aspect=fixed;perimeter=ellipsePerimeter;html=1;align=center;shadow=0;dashed=0;spacingTop=3;image=img/lib/active_directory/internet_cloud.svg;" vertex="1" parent="1">
          <mxGeometry x="690" y="260" width="81.75" height="51.5" as="geometry" />
        </mxCell>
        <mxCell id="_xMtolpyy3HR6Oa9e1ho-6" value="WAZUH MANAGER" style="image;aspect=fixed;perimeter=ellipsePerimeter;html=1;align=center;shadow=0;dashed=0;spacingTop=3;image=img/lib/active_directory/internet_cloud.svg;" vertex="1" parent="1">
          <mxGeometry x="140" y="260" width="65.87" height="41.5" as="geometry" />
        </mxCell>
        <mxCell id="_xMtolpyy3HR6Oa9e1ho-8" value="Shuffle" style="image;aspect=fixed;perimeter=ellipsePerimeter;html=1;align=center;shadow=0;dashed=0;spacingTop=3;image=img/lib/active_directory/internet_cloud.svg;" vertex="1" parent="1">
          <mxGeometry x="400" y="60" width="81.75" height="51.5" as="geometry" />
        </mxCell>
        <mxCell id="_xMtolpyy3HR6Oa9e1ho-15" value="3. Send alerts" style="endArrow=classic;startArrow=classic;html=1;rounded=0;exitX=0.637;exitY=-0.088;exitDx=0;exitDy=0;exitPerimeter=0;entryX=0;entryY=1;entryDx=0;entryDy=0;" edge="1" parent="1" source="_xMtolpyy3HR6Oa9e1ho-6" target="_xMtolpyy3HR6Oa9e1ho-8">
          <mxGeometry width="50" height="50" relative="1" as="geometry">
            <mxPoint x="400" y="440" as="sourcePoint" />
            <mxPoint x="450" y="390" as="targetPoint" />
            <Array as="points" />
          </mxGeometry>
        </mxCell>
        <mxCell id="_xMtolpyy3HR6Oa9e1ho-16" value="5. Send alerts" style="endArrow=classic;startArrow=classic;html=1;rounded=0;exitX=1;exitY=0.75;exitDx=0;exitDy=0;entryX=0.009;entryY=-0.05;entryDx=0;entryDy=0;entryPerimeter=0;" edge="1" parent="1" source="_xMtolpyy3HR6Oa9e1ho-8" target="_xMtolpyy3HR6Oa9e1ho-5">
          <mxGeometry width="50" height="50" relative="1" as="geometry">
            <mxPoint x="400" y="440" as="sourcePoint" />
            <mxPoint x="450" y="390" as="targetPoint" />
            <Array as="points">
              <mxPoint x="590" y="170" />
            </Array>
          </mxGeometry>
        </mxCell>
        <mxCell id="_xMtolpyy3HR6Oa9e1ho-17" value="6. Send email" style="endArrow=classic;startArrow=classic;html=1;rounded=0;exitX=0.75;exitY=1;exitDx=0;exitDy=0;entryX=1;entryY=0.5;entryDx=0;entryDy=0;" edge="1" parent="1" source="_xMtolpyy3HR6Oa9e1ho-8" target="_xMtolpyy3HR6Oa9e1ho-4">
          <mxGeometry width="50" height="50" relative="1" as="geometry">
            <mxPoint x="400" y="440" as="sourcePoint" />
            <mxPoint x="450" y="390" as="targetPoint" />
            <Array as="points">
              <mxPoint x="540" y="190" />
            </Array>
          </mxGeometry>
        </mxCell>
        <mxCell id="_xMtolpyy3HR6Oa9e1ho-18" value="4.Enrich IOC&#39;S" style="endArrow=classic;startArrow=classic;html=1;rounded=0;entryX=0.373;entryY=0.913;entryDx=0;entryDy=0;entryPerimeter=0;exitX=0.25;exitY=0;exitDx=0;exitDy=0;" edge="1" parent="1" source="_xMtolpyy3HR6Oa9e1ho-4" target="_xMtolpyy3HR6Oa9e1ho-8">
          <mxGeometry width="50" height="50" relative="1" as="geometry">
            <mxPoint x="400" y="440" as="sourcePoint" />
            <mxPoint x="450" y="390" as="targetPoint" />
            <Array as="points">
              <mxPoint x="430" y="180" />
            </Array>
          </mxGeometry>
        </mxCell>
        <mxCell id="_xMtolpyy3HR6Oa9e1ho-19" value="1.Send events" style="endArrow=classic;startArrow=classic;html=1;rounded=0;" edge="1" parent="1" target="_xMtolpyy3HR6Oa9e1ho-3">
          <mxGeometry width="50" height="50" relative="1" as="geometry">
            <mxPoint x="440" y="600" as="sourcePoint" />
            <mxPoint x="465.88" y="525" as="targetPoint" />
          </mxGeometry>
        </mxCell>
        <mxCell id="_xMtolpyy3HR6Oa9e1ho-21" value="8. Send response action" style="endArrow=classic;startArrow=classic;html=1;rounded=0;entryX=1;entryY=1;entryDx=0;entryDy=0;exitX=0;exitY=0.5;exitDx=0;exitDy=0;exitPerimeter=0;" edge="1" parent="1" source="_xMtolpyy3HR6Oa9e1ho-2" target="_xMtolpyy3HR6Oa9e1ho-4">
          <mxGeometry width="50" height="50" relative="1" as="geometry">
            <mxPoint x="400" y="440" as="sourcePoint" />
            <mxPoint x="450" y="390" as="targetPoint" />
            <Array as="points">
              <mxPoint x="530" y="430" />
            </Array>
          </mxGeometry>
        </mxCell>
        <mxCell id="_xMtolpyy3HR6Oa9e1ho-22" value="7. Send and receive email" style="endArrow=classic;startArrow=classic;html=1;rounded=0;entryX=1;entryY=0.75;entryDx=0;entryDy=0;" edge="1" parent="1" target="_xMtolpyy3HR6Oa9e1ho-4">
          <mxGeometry width="50" height="50" relative="1" as="geometry">
            <mxPoint x="720" y="400" as="sourcePoint" />
            <mxPoint x="450" y="390" as="targetPoint" />
            <Array as="points">
              <mxPoint x="630" y="350" />
            </Array>
          </mxGeometry>
        </mxCell>
        <mxCell id="_xMtolpyy3HR6Oa9e1ho-31" value="" style="edgeStyle=orthogonalEdgeStyle;rounded=0;orthogonalLoop=1;jettySize=auto;html=1;" edge="1" parent="1" source="_xMtolpyy3HR6Oa9e1ho-28" target="_xMtolpyy3HR6Oa9e1ho-30">
          <mxGeometry relative="1" as="geometry" />
        </mxCell>
        <mxCell id="_xMtolpyy3HR6Oa9e1ho-28" value="Windows 10&lt;div&gt;Send events&lt;/div&gt;" style="text;html=1;align=center;verticalAlign=middle;resizable=0;points=[];autosize=1;strokeColor=none;fillColor=none;" vertex="1" parent="1">
          <mxGeometry x="-120" y="803" width="90" height="40" as="geometry" />
        </mxCell>
        <mxCell id="_xMtolpyy3HR6Oa9e1ho-33" value="" style="edgeStyle=orthogonalEdgeStyle;rounded=0;orthogonalLoop=1;jettySize=auto;html=1;" edge="1" parent="1" source="_xMtolpyy3HR6Oa9e1ho-30" target="_xMtolpyy3HR6Oa9e1ho-32">
          <mxGeometry relative="1" as="geometry" />
        </mxCell>
        <mxCell id="_xMtolpyy3HR6Oa9e1ho-30" value="Wazuh manager&lt;div&gt;Trigger alerts and perform response actions&lt;/div&gt;" style="text;html=1;align=center;verticalAlign=middle;resizable=0;points=[];autosize=1;strokeColor=none;fillColor=none;" vertex="1" parent="1">
          <mxGeometry x="70" y="803" width="260" height="40" as="geometry" />
        </mxCell>
        <mxCell id="_xMtolpyy3HR6Oa9e1ho-35" value="" style="edgeStyle=orthogonalEdgeStyle;rounded=0;orthogonalLoop=1;jettySize=auto;html=1;" edge="1" parent="1" source="_xMtolpyy3HR6Oa9e1ho-32" target="_xMtolpyy3HR6Oa9e1ho-34">
          <mxGeometry relative="1" as="geometry" />
        </mxCell>
        <mxCell id="_xMtolpyy3HR6Oa9e1ho-37" value="" style="edgeStyle=orthogonalEdgeStyle;rounded=0;orthogonalLoop=1;jettySize=auto;html=1;" edge="1" parent="1" source="_xMtolpyy3HR6Oa9e1ho-32" target="_xMtolpyy3HR6Oa9e1ho-36">
          <mxGeometry relative="1" as="geometry" />
        </mxCell>
        <mxCell id="_xMtolpyy3HR6Oa9e1ho-39" value="" style="edgeStyle=orthogonalEdgeStyle;rounded=0;orthogonalLoop=1;jettySize=auto;html=1;" edge="1" parent="1" source="_xMtolpyy3HR6Oa9e1ho-32" target="_xMtolpyy3HR6Oa9e1ho-38">
          <mxGeometry relative="1" as="geometry" />
        </mxCell>
        <mxCell id="_xMtolpyy3HR6Oa9e1ho-32" value="Shuffle&lt;div&gt;Receive wazuh alerts and send responsive actions&lt;/div&gt;" style="text;html=1;align=center;verticalAlign=middle;resizable=0;points=[];autosize=1;strokeColor=none;fillColor=none;" vertex="1" parent="1">
          <mxGeometry x="395" y="803" width="290" height="40" as="geometry" />
        </mxCell>
        <mxCell id="_xMtolpyy3HR6Oa9e1ho-34" value="OSINT&lt;div&gt;Enrich IOC&#39;S&amp;nbsp;&lt;/div&gt;" style="text;html=1;align=center;verticalAlign=middle;resizable=0;points=[];autosize=1;strokeColor=none;fillColor=none;" vertex="1" parent="1">
          <mxGeometry x="490" y="683" width="100" height="40" as="geometry" />
        </mxCell>
        <mxCell id="_xMtolpyy3HR6Oa9e1ho-36" value="TheHive&lt;div&gt;Create alert in case management&lt;/div&gt;" style="text;html=1;align=center;verticalAlign=middle;resizable=0;points=[];autosize=1;strokeColor=none;fillColor=none;" vertex="1" parent="1">
          <mxGeometry x="440" y="923" width="200" height="40" as="geometry" />
        </mxCell>
        <mxCell id="_xMtolpyy3HR6Oa9e1ho-38" value="Email&lt;div&gt;send email and responsive actions&lt;/div&gt;" style="text;html=1;align=center;verticalAlign=middle;resizable=0;points=[];autosize=1;strokeColor=none;fillColor=none;" vertex="1" parent="1">
          <mxGeometry x="805" y="803" width="210" height="40" as="geometry" />
        </mxCell>
        <mxCell id="_xMtolpyy3HR6Oa9e1ho-40" value="8. Perform responsive action" style="endArrow=classic;startArrow=classic;html=1;rounded=0;" edge="1" parent="1" source="_xMtolpyy3HR6Oa9e1ho-1" target="_xMtolpyy3HR6Oa9e1ho-6">
          <mxGeometry width="50" height="50" relative="1" as="geometry">
            <mxPoint x="400" y="470" as="sourcePoint" />
            <mxPoint x="450" y="420" as="targetPoint" />
            <Array as="points">
              <mxPoint x="173" y="610" />
            </Array>
          </mxGeometry>
        </mxCell>
        <mxCell id="_xMtolpyy3HR6Oa9e1ho-41" value="2. Receive events" style="endArrow=classic;startArrow=classic;html=1;rounded=0;entryX=0;entryY=0.5;entryDx=0;entryDy=0;" edge="1" parent="1" target="_xMtolpyy3HR6Oa9e1ho-4">
          <mxGeometry width="50" height="50" relative="1" as="geometry">
            <mxPoint x="210" y="280" as="sourcePoint" />
            <mxPoint x="385" y="280.17" as="targetPoint" />
          </mxGeometry>
        </mxCell>
        <mxCell id="_xMtolpyy3HR6Oa9e1ho-3" value="Router" style="image;html=1;image=img/lib/clip_art/networking/Router_Icon_128x128.png" vertex="1" parent="1">
          <mxGeometry x="408.38" y="440" width="65" height="65" as="geometry" />
        </mxCell>
      </root>
    </mxGraphModel>
  </diagram>
</mxfile>
